<svg width="24" height="24" viewBox="0 0 24 24" fill="none" xmlns="http://www.w3.org/2000/svg">
<path d="M9.00083 0.75C9.00083 0.551088 9.07985 0.360322 9.2205 0.21967C9.36115 0.0790176 9.55192 0 9.75083 0L14.2508 0C14.4497 0 14.6405 0.0790176 14.7812 0.21967C14.9218 0.360322 15.0008 0.551088 15.0008 0.75C15.0008 0.948912 14.9218 1.13968 14.7812 1.28033C14.6405 1.42098 14.4497 1.5 14.2508 1.5H13.5008V3.105C15.5435 3.39986 17.4541 4.2901 18.9938 5.6645C20.5334 7.0389 21.634 8.83652 22.158 10.8328C22.6819 12.829 22.606 14.9354 21.9398 16.8888C21.2735 18.8422 20.0464 20.556 18.4118 21.816L19.3133 22.719C19.4542 22.8596 19.5334 23.0504 19.5335 23.2495C19.5336 23.4485 19.4547 23.6394 19.3141 23.7803C19.1734 23.9211 18.9826 24.0003 18.7836 24.0004C18.5846 24.0006 18.3937 23.9216 18.2528 23.781L17.1338 22.662C15.5663 23.5419 13.7984 24.0027 12.0008 24C10.2033 24.0027 8.43536 23.5419 6.86783 22.662L5.74883 23.781C5.6791 23.8506 5.59633 23.9058 5.50526 23.9435C5.41419 23.9811 5.3166 24.0005 5.21805 24.0004C5.1195 24.0003 5.02194 23.9809 4.93092 23.9431C4.8399 23.9053 4.75721 23.85 4.68758 23.7803C4.61795 23.7105 4.56273 23.6278 4.52508 23.5367C4.48743 23.4456 4.46809 23.348 4.46816 23.2495C4.4683 23.0504 4.5475 22.8596 4.68833 22.719L5.59133 21.816C3.95676 20.5561 2.72967 18.8424 2.06334 16.8892C1.39701 14.9359 1.32099 12.8296 1.84477 10.8334C2.36855 8.83714 3.46891 7.0395 5.0084 5.66501C6.54788 4.29051 8.45824 3.4001 10.5008 3.105V1.5H9.75083C9.55192 1.5 9.36115 1.42098 9.2205 1.28033C9.07985 1.13968 9.00083 0.948912 9.00083 0.75ZM12.7508 8.25C12.7508 8.05109 12.6718 7.86032 12.5312 7.71967C12.3905 7.57902 12.1997 7.5 12.0008 7.5C11.8019 7.5 11.6112 7.57902 11.4705 7.71967C11.3298 7.86032 11.2508 8.05109 11.2508 8.25V13.293L9.10733 16.863C9.00489 17.0337 8.97444 17.238 9.02269 17.4312C9.07093 17.6243 9.19391 17.7903 9.36458 17.8927C9.53525 17.9952 9.73962 18.0256 9.93273 17.9774C10.1258 17.9291 10.2919 17.8062 10.3943 17.6355L12.6443 13.8855C12.7141 13.769 12.7509 13.6358 12.7508 13.5V8.25ZM1.29083 8.0805C0.902719 7.7429 0.588214 7.32907 0.366872 6.86473C0.145531 6.40039 0.022087 5.89548 0.00421685 5.3814C-0.0136533 4.86732 0.0744327 4.35505 0.262997 3.87647C0.451561 3.39788 0.736571 2.96321 1.1003 2.59947C1.46403 2.23574 1.89871 1.95073 2.3773 1.76217C2.85588 1.5736 3.36815 1.48552 3.88223 1.50339C4.39631 1.52126 4.90122 1.6447 5.36556 1.86604C5.8299 2.08738 6.24373 2.40189 6.58133 2.79C4.30125 3.94762 2.44845 5.80042 1.29083 8.0805ZM17.4203 2.79C17.7579 2.40189 18.1718 2.08738 18.6361 1.86604C19.1004 1.6447 19.6053 1.52126 20.1194 1.50339C20.6335 1.48552 21.1458 1.5736 21.6244 1.76217C22.103 1.95073 22.5376 2.23574 22.9014 2.59947C23.2651 2.96321 23.5501 3.39788 23.7387 3.87647C23.9272 4.35505 24.0153 4.86732 23.9974 5.3814C23.9796 5.89548 23.8561 6.40039 23.6348 6.86473C23.4134 7.32907 23.0989 7.7429 22.7108 8.0805C21.5532 5.80042 19.7004 3.94762 17.4203 2.79Z" fill="#EBF0F9"/>
</svg>
