<svg width="24" height="24" viewBox="0 0 24 24" fill="none" xmlns="http://www.w3.org/2000/svg">
<g clip-path="url(#clip0_13_3398)">
<path d="M23.3836 21.6191L16.8546 15.0901C18.2797 13.2167 18.9401 10.8719 18.7021 8.53019C18.464 6.18844 17.3454 4.02453 15.5725 2.47624C13.7995 0.927952 11.5047 0.110889 9.15221 0.190356C6.79974 0.269822 4.56527 1.23988 2.90087 2.90428C1.23647 4.56868 0.266404 6.80315 0.186938 9.15563C0.107471 11.5081 0.924534 13.8029 2.47282 15.5759C4.02111 17.3488 6.18502 18.4674 8.52677 18.7055C10.8685 18.9435 13.2133 18.2832 15.0866 16.8581L21.6156 23.3871C21.8521 23.6177 22.1693 23.7468 22.4996 23.7468C22.8299 23.7468 23.1472 23.6177 23.3836 23.3871C23.6179 23.1525 23.7495 22.8345 23.7495 22.5031C23.7495 22.1716 23.6179 21.8536 23.3836 21.6191ZM2.74963 9.50005C2.74963 8.16503 3.14551 6.85998 3.88721 5.74995C4.62891 4.63992 5.68312 3.77476 6.91652 3.26386C8.14992 2.75297 9.50712 2.6193 10.8165 2.87975C12.1259 3.1402 13.3286 3.78308 14.2726 4.72708C15.2166 5.67109 15.8595 6.87382 16.1199 8.18319C16.3804 9.49256 16.2467 10.8498 15.7358 12.0832C15.2249 13.3166 14.3598 14.3708 13.2497 15.1125C12.1397 15.8542 10.8347 16.2501 9.49963 16.2501C7.71007 16.2479 5.99441 15.5361 4.729 14.2707C3.46359 13.0053 2.75175 11.2896 2.74963 9.50005Z" fill="white"/>
</g>
<defs>
<clipPath id="clip0_13_3398">
<rect width="24" height="24" fill="white"/>
</clipPath>
</defs>
</svg>
