<svg width="27" height="27" viewBox="0 0 27 27" fill="none" xmlns="http://www.w3.org/2000/svg">
<path d="M0 3.6C0 1.61177 1.61177 0 3.6 0H7.2C7.69707 0 8.1 0.402943 8.1 0.9C8.1 1.39706 7.69707 1.8 7.2 1.8H3.6C2.60589 1.8 1.8 2.60589 1.8 3.6V7.2C1.8 7.69707 1.39706 8.1 0.9 8.1C0.402943 8.1 0 7.69707 0 7.2V3.6Z" fill="white"/>
<path d="M18.9004 0.9C18.9004 0.402943 19.3033 0 19.8004 0H23.4004C25.3886 0 27.0004 1.61177 27.0004 3.6V7.2C27.0004 7.69707 26.5975 8.1 26.1004 8.1C25.6033 8.1 25.2004 7.69707 25.2004 7.2V3.6C25.2004 2.60589 24.3945 1.8 23.4004 1.8H19.8004C19.3033 1.8 18.9004 1.39706 18.9004 0.9Z" fill="white"/>
<path d="M0.9 18.8999C1.39706 18.8999 1.8 19.3028 1.8 19.7999V23.3999C1.8 24.394 2.60589 25.1999 3.6 25.1999H7.2C7.69707 25.1999 8.1 25.6028 8.1 26.0999C8.1 26.597 7.69707 26.9999 7.2 26.9999H3.6C1.61177 26.9999 0 25.3881 0 23.3999V19.7999C0 19.3028 0.402943 18.8999 0.9 18.8999Z" fill="white"/>
<path d="M26.1004 18.8999C26.5975 18.8999 27.0004 19.3028 27.0004 19.7999V23.3999C27.0004 25.3881 25.3886 26.9999 23.4004 26.9999H19.8004C19.3033 26.9999 18.9004 26.597 18.9004 26.0999C18.9004 25.6028 19.3033 25.1999 19.8004 25.1999H23.4004C24.3945 25.1999 25.2004 24.394 25.2004 23.3999V19.7999C25.2004 19.3028 25.6033 18.8999 26.1004 18.8999Z" fill="white"/>
<path fill-rule="evenodd" clip-rule="evenodd" d="M4.5 13.5C4.5 8.52943 8.52943 4.5 13.5 4.5C18.4706 4.5 22.5 8.52943 22.5 13.5C22.5 18.4706 18.4706 22.5 13.5 22.5C8.52943 22.5 4.5 18.4706 4.5 13.5ZM20.5828 14.8009C16.9899 15.8568 13.212 14.9204 10.5338 12.5577C9.60754 13.9174 8.25259 14.9948 6.59952 15.5616C7.48606 18.5334 10.24 20.7 13.5 20.7C17.0323 20.7 19.9705 18.1564 20.5828 14.8009Z" fill="white"/>
</svg>
