<svg width="24" height="24" viewBox="0 0 24 24" fill="none" xmlns="http://www.w3.org/2000/svg">
<path d="M19.75 1.5H3.25C2.65326 1.5 2.08097 1.73705 1.65901 2.15901C1.23705 2.58097 1 3.15326 1 3.75L1 20.25C1 20.8467 1.23705 21.419 1.65901 21.841C2.08097 22.2629 2.65326 22.5 3.25 22.5H9.68359V15.3605H6.73047V12H9.68359V9.43875C9.68359 6.52547 11.418 4.91625 14.0744 4.91625C15.3466 4.91625 16.6769 5.14313 16.6769 5.14313V8.0025H15.2111C13.7669 8.0025 13.3164 8.89875 13.3164 9.81797V12H16.5405L16.0248 15.3605H13.3164V22.5H19.75C20.3467 22.5 20.919 22.2629 21.341 21.841C21.7629 21.419 22 20.8467 22 20.25V3.75C22 3.15326 21.7629 2.58097 21.341 2.15901C20.919 1.73705 20.3467 1.5 19.75 1.5Z" fill="white"/>
</svg>
