<svg width="24" height="24" viewBox="0 0 24 24" fill="none" xmlns="http://www.w3.org/2000/svg">
<path d="M11.5043 6.60976C8.52304 6.60976 6.11835 9.01445 6.11835 11.9957C6.11835 14.9769 8.52304 17.3816 11.5043 17.3816C14.4855 17.3816 16.8902 14.9769 16.8902 11.9957C16.8902 9.01445 14.4855 6.60976 11.5043 6.60976ZM11.5043 15.4973C9.57773 15.4973 8.00273 13.9269 8.00273 11.9957C8.00273 10.0644 9.57304 8.49414 11.5043 8.49414C13.4355 8.49414 15.0058 10.0644 15.0058 11.9957C15.0058 13.9269 13.4308 15.4973 11.5043 15.4973ZM18.3668 6.38945C18.3668 7.08789 17.8043 7.6457 17.1105 7.6457C16.4121 7.6457 15.8543 7.0832 15.8543 6.38945C15.8543 5.6957 16.4168 5.1332 17.1105 5.1332C17.8043 5.1332 18.3668 5.6957 18.3668 6.38945ZM21.934 7.66445C21.8543 5.98164 21.4699 4.49101 20.2371 3.26289C19.009 2.03477 17.5183 1.65039 15.8355 1.56602C14.1012 1.46758 8.90273 1.46758 7.16835 1.56602C5.49023 1.6457 3.99961 2.03008 2.7668 3.2582C1.53398 4.48633 1.1543 5.97695 1.06992 7.65976C0.971484 9.39414 0.971484 14.5926 1.06992 16.3269C1.14961 18.0098 1.53398 19.5004 2.7668 20.7285C3.99961 21.9566 5.48554 22.341 7.16835 22.4254C8.90273 22.5238 14.1012 22.5238 15.8355 22.4254C17.5183 22.3457 19.009 21.9613 20.2371 20.7285C21.4652 19.5004 21.8496 18.0098 21.934 16.3269C22.0324 14.5926 22.0324 9.39882 21.934 7.66445ZM19.6933 18.1879C19.3277 19.1066 18.6199 19.8144 17.6965 20.1848C16.3137 20.7332 13.0324 20.6066 11.5043 20.6066C9.97616 20.6066 6.69023 20.7285 5.31211 20.1848C4.39336 19.8191 3.68554 19.1113 3.31523 18.1879C2.7668 16.8051 2.89336 13.5238 2.89336 11.9957C2.89336 10.4676 2.77148 7.18164 3.31523 5.80351C3.68086 4.88476 4.38867 4.17695 5.31211 3.80664C6.69492 3.2582 9.97616 3.38476 11.5043 3.38476C13.0324 3.38476 16.3183 3.26289 17.6965 3.80664C18.6152 4.17226 19.323 4.88008 19.6933 5.80351C20.2418 7.18633 20.1152 10.4676 20.1152 11.9957C20.1152 13.5238 20.2418 16.8098 19.6933 18.1879Z" fill="white"/>
</svg>
