<svg width="24" height="24" viewBox="0 0 24 24" fill="none" xmlns="http://www.w3.org/2000/svg">
<path d="M5.70062 21.0005H1.34688V6.98019H5.70062V21.0005ZM3.52141 5.06769C2.12922 5.06769 1 3.91457 1 2.52238C1 1.85366 1.26565 1.21233 1.7385 0.739479C2.21136 0.266624 2.85269 0.000976562 3.52141 0.000976562C4.19012 0.000976562 4.83145 0.266624 5.30431 0.739479C5.77716 1.21233 6.04281 1.85366 6.04281 2.52238C6.04281 3.91457 4.91313 5.06769 3.52141 5.06769ZM21.9953 21.0005H17.6509V14.1755C17.6509 12.5489 17.6181 10.463 15.3873 10.463C13.1237 10.463 12.7769 12.2302 12.7769 14.0583V21.0005H8.42781V6.98019H12.6034V8.89269H12.6644C13.2456 7.79113 14.6655 6.62863 16.7838 6.62863C21.19 6.62863 22 9.53019 22 13.2989V21.0005H21.9953Z" fill="white"/>
</svg>
